<?xml version="1.0" encoding="UTF-8"?>
<svg xmlns="http://www.w3.org/2000/svg" viewBox="0 0 2235.5 843.92">
  <defs>
    <style>
      .cls-1 {
        fill: #5c6078;
      }

      .cls-1, .cls-2, .cls-3, .cls-4 {
        stroke-width: 0px;
      }

      .cls-2 {
        fill: #363a4f;
      }

      .cls-3 {
        fill: #24273a;
        opacity: 0;
      }

      .cls-4 {
        fill: #cbd2ec;
      }
    </style>
  </defs>
  <g id="size-window">
    <rect class="cls-3" x="861.75" y="243.27" width="512" height="512"/>
  </g>
  <g id="Ebene_142" data-name="Ebene 142">
    <path class="cls-1" d="m1358.99,467.16l-89.96-155.81c-12.13-21.01-34.55-33.96-58.8-33.96h-179.93c-24.25,0-46.67,12.95-58.8,33.96l-89.96,155.81c-12.13,21.01-12.13,46.9,0,67.9l89.96,155.82c12.13,21.01,34.55,33.95,58.8,33.95h179.93c24.25,0,46.67-12.94,58.8-33.95l6.3-10.92,21.42-37.09,62.24-107.81c12.13-21,12.13-46.89,0-67.9Zm-54.14,50.16l-12.36,21.32c-3.16,5.46-9,8.82-15.31,8.82h-2.12l-58.18,99.85h0c-3.8,6.51-10.77,10.52-18.31,10.52h-148.38v2.08c0,4.93-4.03,8.88-8.96,8.86-5.49-.02-10.77-1.49-15.38-4.14-4.63-2.67-8.57-6.54-11.34-11.32l-78.83-135.99c-5.57-9.62-5.57-21.48,0-31.1l78.83-135.99c5.54-9.57,15.77-15.46,26.82-15.46h157.87c11.05,0,21.28,5.89,26.82,15.46l24.3,41.92c2.39,4.27-.69,9.56-5.61,9.56h-2.24l45.34,77.81h5.42c4.79,0,9.22,2.55,11.62,6.7,5.57,9.62,5.57,21.48,0,31.1Z"/>
    <path class="cls-4" d="m1304.85,517.32l-12.36,21.32c-3.16,5.46-9,8.82-15.31,8.82h-221.15c-3.23,0-5.84,2.61-5.84,5.84v106.61c0,4.93-4.03,8.88-8.96,8.86-5.49-.02-10.77-1.49-15.38-4.14-4.63-2.67-8.57-6.54-11.34-11.32l-78.83-135.99c-5.57-9.62-5.57-21.48,0-31.1l78.83-135.99c5.54-9.57,15.77-15.46,26.82-15.46h157.87c11.05,0,21.28,5.89,26.82,15.46l24.3,41.92c2.39,4.27-.69,9.56-5.61,9.56h-187.26c-4.01,0-7.26,3.25-7.26,7.26v65.86c0,2.59,2.1,4.69,4.69,4.69h238.35c4.79,0,9.22,2.55,11.62,6.7,5.57,9.62,5.57,21.48,0,31.1Z"/>
    <path class="cls-2" d="m1275.06,547.46l-58.18,99.85h0c-3.8,6.51-10.77,10.52-18.31,10.52h-148.38v-104.53c0-3.23,2.61-5.84,5.84-5.84h219.03Z"/>
    <path class="cls-2" d="m1287.81,479.52h-232.93c-2.59,0-4.69-2.1-4.69-4.69v-65.86c0-4.01,3.25-7.26,7.26-7.26h185.02l45.34,77.81Z"/>
  </g>
</svg>